<?xml version="1.0" encoding="UTF-8"?>
<svg version="1.1" xmlns="http://www.w3.org/2000/svg" width="32" height="32">
<path d="M0 0 C3.9437642 1.00265191 5.20448138 0.83732834 8.6875 -1.0625 C14.43168605 3.17005814 14.43168605 3.17005814 15.6875 6.9375 C16.0625 9.5 16.0625 9.5 15.6875 11.9375 C11.00092422 16.46246972 5.81376742 16.20528915 -0.3515625 16.16796875 C-4.28166385 15.86206376 -7.48445628 14.76554372 -10.3125 11.9375 C-10.00801491 6.65975851 -9.00494296 3.74183517 -5.3125 -0.0625 C-3.3125 -1.0625 -3.3125 -1.0625 0 0 Z " fill="#1DA6C6" transform="translate(13.3125,16.0625)"/>
<path d="M0 0 C2 1 2 1 3 3 C3.5234603 7.63636264 3.598584 9.89492185 1.375 14 C-1 16 -1 16 -4 16.625 C-7 16 -7 16 -9.375 14 C-11.598584 9.89492185 -11.5234603 7.63636264 -11 3 C-8.88635164 -1.22729673 -4.14812414 -0.60493477 0 0 Z " fill="#FCCF9E" transform="translate(20,0)"/>
</svg>
