<?xml version="1.0" encoding="UTF-8"?>
<svg version="1.1" xmlns="http://www.w3.org/2000/svg" width="32" height="32">
<path d="M0 0 C6.93 0 13.86 0 21 0 C21 5.28 21 10.56 21 16 C14.07 16 7.14 16 0 16 C0 10.72 0 5.44 0 0 Z " fill="#FECD55" transform="translate(11,0)"/>
<path d="M0 0 C1.32 0 2.64 0 4 0 C5.8125 2.25 5.8125 2.25 7 5 C6.72774523 7.38222923 6.06876699 8.86246601 5 11 C6.32 12.65 7.64 14.3 9 16 C10.3303125 15.5978125 10.3303125 15.5978125 11.6875 15.1875 C15 15 15 15 17.875 17.4375 C18.57625 18.283125 19.2775 19.12875 20 20 C19 23 19 23 17 24 C11.16759722 24.57180419 7.54833732 23.49872101 3 20 C-0.91550861 15.77537229 -2.14549545 12.64171851 -2.1875 6.9375 C-2.20167969 6.05964844 -2.21585937 5.18179687 -2.23046875 4.27734375 C-2 2 -2 2 0 0 Z " fill="#B9F49B" transform="translate(2,8)"/>
<path d="M0 0 C6.93 0 13.86 0 21 0 C21 3 21 3 19.20703125 4.89453125 C18.02173828 5.84392578 18.02173828 5.84392578 16.8125 6.8125 C16.03519531 7.45832031 15.25789063 8.10414062 14.45703125 8.76953125 C12 10 12 10 9.4375 9.38671875 C7.12921436 8.07351138 5.18699259 6.7424772 3.1875 5 C2.58292969 4.484375 1.97835938 3.96875 1.35546875 3.4375 C0 2 0 2 0 0 Z " fill="#FEB133" transform="translate(11,0)"/>
<path d="M0 0 C0.66 0 1.32 0 2 0 C5.09917355 4.1322314 5.09917355 4.1322314 4.75 7.1875 C4.21535034 8.47957 3.62534713 9.74930575 3 11 C4.32 12.65 5.64 14.3 7 16 C8.3303125 15.5978125 8.3303125 15.5978125 9.6875 15.1875 C13 15 13 15 15.875 17.4375 C16.57625 18.283125 17.2775 19.12875 18 20 C17.01 20 16.02 20 15 20 C14.34 19.34 13.68 18.68 13 18 C11.9275 18.268125 10.855 18.53625 9.75 18.8125 C6 19 6 19 4.171875 17.65625 C2.49386507 15.80573438 1.11021218 14.24280768 0 12 C0.34375 10.01171875 0.34375 10.01171875 1 8 C1 4.88742431 0.82638376 2.89234315 0 0 Z " fill="#A4EA9D" transform="translate(4,8)"/>
</svg>
