<?xml version="1.0" encoding="UTF-8"?>
<svg version="1.1" xmlns="http://www.w3.org/2000/svg" width="32" height="32">
<path d="M0 0 C4.48247323 2.54611071 7.18615579 5.01499454 8.6875 10.08203125 C9.31681001 15.41921742 9.39450473 19.64183644 7 24.51953125 C4.67686372 27.09381739 2.63348754 29.24078904 -0.3125 31.08203125 C-2.625 30.83203125 -2.625 30.83203125 -4.3125 30.08203125 C-4.6425 27.44203125 -4.9725 24.80203125 -5.3125 22.08203125 C-4.343125 21.69015625 -3.37375 21.29828125 -2.375 20.89453125 C0.80899003 19.42260582 0.80899003 19.42260582 1.625 16.83203125 C1.7009904 13.48845358 1.26792516 10.37110715 0.6875 7.08203125 C-0.3025 7.57703125 -0.3025 7.57703125 -1.3125 8.08203125 C-3.3106051 8.17853064 -5.3120718 8.21183997 -7.3125 8.20703125 C-8.92125 8.21089844 -8.92125 8.21089844 -10.5625 8.21484375 C-13.3125 8.08203125 -13.3125 8.08203125 -15.3125 7.08203125 C-15.5361337 8.49636331 -15.74076476 9.91370743 -15.9375 11.33203125 C-16.11152344 12.51539063 -16.11152344 12.51539063 -16.2890625 13.72265625 C-16.31623739 16.45826147 -15.82203529 17.81772831 -14.3125 20.08203125 C-11.77479997 21.36457769 -11.77479997 21.36457769 -9.3125 22.08203125 C-10.3125 25.08203125 -10.3125 25.08203125 -12.3125 26.08203125 C-11.6525 26.41203125 -10.9925 26.74203125 -10.3125 27.08203125 C-10.6425 28.40203125 -10.9725 29.72203125 -11.3125 31.08203125 C-14.17259035 30.99791095 -15.85898827 30.51384386 -17.9453125 28.52734375 C-22.56163241 23.15278772 -23.67945417 20.05482999 -23.5859375 12.91015625 C-23.16238508 8.52941408 -22.06931179 6.54571786 -19.3125 3.08203125 C-13.4846845 -1.46366484 -7.04757738 -2.79760251 0 0 Z " fill="#3C75BC" transform="translate(23.3125,0.91796875)"/>
<path d="M0 0 C2.9719385 1.12451727 5.33440687 2.22293791 8 4 C8.93383196 9.14869511 8.61372688 13.74981561 6.3125 18.4375 C3.98936372 21.01178614 1.94598754 23.15875779 -1 25 C-3.3125 24.75 -3.3125 24.75 -5 24 C-5.33 21.36 -5.66 18.72 -6 16 C-5.030625 15.608125 -4.06125 15.21625 -3.0625 14.8125 C0.10771443 13.34312954 0.10771443 13.34312954 0.9375 10.8125 C1.01985197 7.10666113 0.55918942 3.66579732 0 0 Z " fill="#155087" transform="translate(24,7)"/>
<path d="M0 0 C0.61875 0.495 1.2375 0.99 1.875 1.5 C0.885 1.995 0.885 1.995 -0.125 2.5 C-0.785 2.17 -1.445 1.84 -2.125 1.5 C-7.38050671 0.97616682 -11.78966186 0.88002158 -16.625 3.125 C-20.26770279 6.58556765 -21.98379741 9.22506941 -22.30078125 14.33203125 C-22.3112956 17.06225819 -22.2560027 19.77320298 -22.125 22.5 C-24.67903148 19.94596852 -24.45107024 18.85990775 -24.5 15.3125 C-24.37658783 9.7662119 -23.58702501 6.84972372 -20.125 2.5 C-14.03785065 -2.24797649 -7.11294702 -3.41421457 0 0 Z " fill="#5894D7" transform="translate(24.125,1.5)"/>
<path d="M0 0 C0.33 0 0.66 0 1 0 C1.3125 3.25 1.3125 3.25 1 7 C-0.62935241 8.37868281 -2.29749607 9.71274093 -4 11 C-4.88593998 14.13863704 -4.88593998 14.13863704 -5 17 C-5.66 17 -6.32 17 -7 17 C-7.33 14.36 -7.66 11.72 -8 9 C-7.05125 8.62875 -6.1025 8.2575 -5.125 7.875 C-1.74446192 6.26004095 -1.74446192 6.26004095 -0.625 2.8125 C-0.41875 1.884375 -0.2125 0.95625 0 0 Z " fill="#0F4180" transform="translate(26,14)"/>
<path d="M0 0 C0.33 0 0.66 0 1 0 C1.25 3.3125 1.25 3.3125 1 7 C-1 8.9375 -1 8.9375 -3 10 C-3.66 9.34 -4.32 8.68 -5 8 C-4.01 7.34 -3.02 6.68 -2 6 C-0.78715124 2.94570927 -0.78715124 2.94570927 0 0 Z " fill="#104877" transform="translate(26,14)"/>
<path d="M0 0 C-0.7734375 0.37125 -0.7734375 0.37125 -1.5625 0.75 C-4.77184151 2.39581616 -7.87585664 4.1976096 -11 6 C-11 5.01 -11 4.02 -11 3 C-7.33513904 0.08966924 -4.60625394 -0.32136655 0 0 Z " fill="#609CDF" transform="translate(15,1)"/>
</svg>
