<?xml version="1.0" encoding="UTF-8"?>
<svg version="1.1" xmlns="http://www.w3.org/2000/svg" width="32" height="32">
<path d="M0 0 C10.56 0 21.12 0 32 0 C32 10.56 32 21.12 32 32 C21.44 32 10.88 32 0 32 C0 21.44 0 10.88 0 0 Z " fill="#0679B5" transform="translate(0,0)"/>
<path d="M0 0 C8.3984375 -0.1953125 8.3984375 -0.1953125 11 0 C13 2 13 2 13.1953125 4.6015625 C13.17210937 5.59929688 13.14890625 6.59703125 13.125 7.625 C13.10695313 8.62789062 13.08890625 9.63078125 13.0703125 10.6640625 C13.03550781 11.82035156 13.03550781 11.82035156 13 13 C11.68 13 10.36 13 9 13 C8.67 10.03 8.34 7.06 8 4 C7.01 4 6.02 4 5 4 C4.67 6.97 4.34 9.94 4 13 C2.68 13 1.36 13 0 13 C0 8.71 0 4.42 0 0 Z " fill="#FAFCFD" transform="translate(13,13)"/>
<path d="M0 0 C1.32 0 2.64 0 4 0 C4 4.29 4 8.58 4 13 C2.68 13 1.36 13 0 13 C0 8.71 0 4.42 0 0 Z " fill="#F8FBFD" transform="translate(7,13)"/>
<path d="M0 0 C1.98 0.495 1.98 0.495 4 1 C4 2.32 4 3.64 4 5 C2.35 4.67 0.7 4.34 -1 4 C-0.67 2.68 -0.34 1.36 0 0 Z " fill="#EDF5F9" transform="translate(7,6)"/>
</svg>
