<?xml version="1.0" encoding="UTF-8"?>
<svg version="1.1" xmlns="http://www.w3.org/2000/svg" width="32" height="32">
<path d="M0 0 C-0.58368918 6.05885808 -2.38738261 11.27358046 -4.5625 16.9375 C-4.89185547 17.81212891 -5.22121094 18.68675781 -5.56054688 19.58789062 C-6.36737838 21.72774809 -7.18063181 23.86491864 -8 26 C-9.40185547 25.44505859 -9.40185547 25.44505859 -10.83203125 24.87890625 C-11.87746094 24.58886719 -12.92289063 24.29882812 -14 24 C-16.69433317 25.87197454 -16.69433317 25.87197454 -19 28 C-19.99 27.67 -20.98 27.34 -22 27 C-22.07476563 26.25234375 -22.14953125 25.5046875 -22.2265625 24.734375 C-22.74396134 19.14380177 -22.74396134 19.14380177 -25.46875 14.484375 C-26.94950214 13.60430533 -28.47282073 12.79678918 -30 12 C-30 11.01 -30 10.02 -30 9 C-25.9422595 7.48689875 -21.87810033 5.99184012 -17.8125 4.5 C-16.66201172 4.07074219 -15.51152344 3.64148438 -14.32617188 3.19921875 C-13.21435547 2.79316406 -12.10253906 2.38710937 -10.95703125 1.96875 C-9.93585205 1.59169922 -8.91467285 1.21464844 -7.86254883 0.82617188 C-5.07499548 0.02164475 -2.88069216 -0.16659425 0 0 Z " fill="#F37874" transform="translate(31,2)"/>
<path d="M0 0 C0.66 0.33 1.32 0.66 2 1 C-0.64 8.26 -3.28 15.52 -6 23 C-10.26511313 21.29395475 -12.61418999 19.90212286 -16 17 C-14.40870074 12.8029482 -11.27939817 10.26767669 -8 7.375 C-6.91644685 6.40389105 -5.83310493 5.43254634 -4.75 4.4609375 C-3.8425 3.64882812 -2.935 2.83671875 -2 2 C-1.34 1.34 -0.68 0.68 0 0 Z " fill="#F47874" transform="translate(29,5)"/>
<path d="M0 0 C0 3 0 3 -1.17749023 4.50219727 C-1.71575439 5.01838623 -2.25401855 5.5345752 -2.80859375 6.06640625 C-3.39060547 6.63423828 -3.97261719 7.20207031 -4.57226562 7.78710938 C-5.18779297 8.37298828 -5.80332031 8.95886719 -6.4375 9.5625 C-7.64662282 10.72830335 -8.85375214 11.89617887 -10.05859375 13.06640625 C-10.59798584 13.58146729 -11.13737793 14.09652832 -11.69311523 14.62719727 C-13.11568831 15.98737461 -13.11568831 15.98737461 -14 18 C-12.68 18.66 -11.36 19.32 -10 20 C-11.0975223 22.99324263 -11.67682892 23.84610901 -14.625 25.25 C-15.40875 25.4975 -16.1925 25.745 -17 26 C-19.49766057 18.03870693 -19.49766057 18.03870693 -19 14 C-17.3828125 12.2265625 -17.3828125 12.2265625 -15.125 10.625 C-14.31417969 10.03847656 -13.50335937 9.45195312 -12.66796875 8.84765625 C-11.78753906 8.23792969 -10.90710937 7.62820312 -10 7 C-8.60201172 6.00806641 -8.60201172 6.00806641 -7.17578125 4.99609375 C-4.7945139 3.31459968 -2.40287272 1.65040736 0 0 Z " fill="#EE3C35" transform="translate(27,4)"/>
<path d="M0 0 C1.65 0.99 3.3 1.98 5 3 C3.9024777 5.99324263 3.32317108 6.84610901 0.375 8.25 C-0.40875 8.4975 -1.1925 8.745 -2 9 C-1.34 6.03 -0.68 3.06 0 0 Z " fill="#D8322B" transform="translate(12,21)"/>
</svg>
