<?xml version="1.0" encoding="UTF-8"?>
<svg version="1.1" xmlns="http://www.w3.org/2000/svg" width="32" height="32">
<path d="M0 0 C0.99 0.33 1.98 0.66 3 1 C4.1875 4.0625 4.1875 4.0625 5 7 C6.423125 6.9690625 6.423125 6.9690625 7.875 6.9375 C11 7 11 7 13 8 C11.84826645 10.46800047 10.95216435 12.04783565 9 14 C8.75746187 16.21072977 8.75746187 16.21072977 8.875 18.625 C8.90207031 19.85089844 8.90207031 19.85089844 8.9296875 21.1015625 C8.95289062 21.72804688 8.97609375 22.35453125 9 23 C7.700625 22.4740625 7.700625 22.4740625 6.375 21.9375 C2.69677711 20.91577142 0.67933474 21.20014462 -3 22 C-4.32 22 -5.64 22 -7 22 C-6.9175 20.7625 -6.835 19.525 -6.75 18.25 C-6.7264799 14.92190611 -6.75935666 14.28576397 -9 11.625 C-9.66 11.08875 -10.32 10.5525 -11 10 C-11 9.34 -11 8.68 -11 8 C-8.29120665 6.64560332 -5.99066732 6.93498549 -3 7 C-2.690625 6.030625 -2.38125 5.06125 -2.0625 4.0625 C-1 1 -1 1 0 0 Z " fill="#FAE78B" transform="translate(15,3)"/>
<path d="M0 0 C0.99 0.33 1.98 0.66 3 1 C1.87548273 3.9719385 0.77706209 6.33440687 -1 9 C-2.32 9 -3.64 9 -5 9 C-4.01 10.485 -4.01 10.485 -3 12 C-2.875 15.1875 -2.875 15.1875 -3 18 C-2.13375 17.773125 -1.2675 17.54625 -0.375 17.3125 C3.68338409 16.9367237 5.55166676 17.94742069 9 20 C9 20.99 9 21.98 9 23 C7.700625 22.4740625 7.700625 22.4740625 6.375 21.9375 C2.69677711 20.91577142 0.67933474 21.20014462 -3 22 C-4.32 22 -5.64 22 -7 22 C-6.9175 20.7625 -6.835 19.525 -6.75 18.25 C-6.7264799 14.92190611 -6.75935666 14.28576397 -9 11.625 C-9.66 11.08875 -10.32 10.5525 -11 10 C-11 9.34 -11 8.68 -11 8 C-8.29120665 6.64560332 -5.99066732 6.93498549 -3 7 C-2.690625 6.030625 -2.38125 5.06125 -2.0625 4.0625 C-1 1 -1 1 0 0 Z " fill="#FAE476" transform="translate(15,3)"/>
<path d="M0 0 C2.475 0.99 2.475 0.99 5 2 C5 2.99 5 3.98 5 5 C3.68 5.33 2.36 5.66 1 6 C0.67 4.02 0.34 2.04 0 0 Z " fill="#F8D047" transform="translate(25,26)"/>
<path d="M0 0 C-0.33 1.98 -0.66 3.96 -1 6 C-2.32 5.67 -3.64 5.34 -5 5 C-5 4.01 -5 3.02 -5 2 C-2 0 -2 0 0 0 Z " fill="#F8D146" transform="translate(7,26)"/>
<path d="M0 0 C1.98 0.495 1.98 0.495 4 1 C4 1.99 4 2.98 4 4 C2.35 4.66 0.7 5.32 -1 6 C-0.67 4.02 -0.34 2.04 0 0 Z " fill="#F8D047" transform="translate(26,0)"/>
<path d="M0 0 C0.99 0 1.98 0 3 0 C3.33 1.98 3.66 3.96 4 6 C1.525 5.01 1.525 5.01 -1 4 C-1 1 -1 1 0 0 Z " fill="#F8D146" transform="translate(3,0)"/>
<path d="M0 0 C0.99 0.33 1.98 0.66 3 1 C2.67 1.99 2.34 2.98 2 4 C1.34 4 0.68 4 0 4 C0 2.68 0 1.36 0 0 Z " fill="#FCE895" transform="translate(0,14)"/>
<path d="M0 0 C0.66 0 1.32 0 2 0 C2 1.32 2 2.64 2 4 C1.01 3.67 0.02 3.34 -1 3 C-0.67 2.01 -0.34 1.02 0 0 Z " fill="#FCE895" transform="translate(30,14)"/>
<path d="M0 0 C0.66 0 1.32 0 2 0 C2.33 0.99 2.66 1.98 3 3 C2.01 3 1.02 3 0 3 C0 2.01 0 1.02 0 0 Z " fill="#FCEB6F" transform="translate(19,28)"/>
<path d="M0 0 C0.66 0 1.32 0 2 0 C2 0.99 2 1.98 2 3 C1.01 2.67 0.02 2.34 -1 2 C-0.67 1.34 -0.34 0.68 0 0 Z " fill="#FCEB6F" transform="translate(11,28)"/>
<path d="M0 0 C0.99 0.33 1.98 0.66 3 1 C3 1.66 3 2.32 3 3 C2.01 2.67 1.02 2.34 0 2 C0 1.34 0 0.68 0 0 Z " fill="#FAE271" transform="translate(27,20)"/>
<path d="M0 0 C0.66 0 1.32 0 2 0 C1.67 0.99 1.34 1.98 1 3 C0.34 3 -0.32 3 -1 3 C-0.67 2.01 -0.34 1.02 0 0 Z " fill="#FAE271" transform="translate(3,20)"/>
<path d="M0 0 C0.66 0 1.32 0 2 0 C1.67 0.99 1.34 1.98 1 3 C0.34 3 -0.32 3 -1 3 C-0.67 2.01 -0.34 1.02 0 0 Z " fill="#FCE573" transform="translate(28,6)"/>
<path d="M0 0 C0.99 0.33 1.98 0.66 3 1 C3 1.66 3 2.32 3 3 C2.01 2.67 1.02 2.34 0 2 C0 1.34 0 0.68 0 0 Z " fill="#FCE573" transform="translate(2,6)"/>
<path d="M0 0 C0.66 0 1.32 0 2 0 C1.67 1.32 1.34 2.64 1 4 C0.67 2.68 0.34 1.36 0 0 Z " fill="#FAE373" transform="translate(20,0)"/>
<path d="M0 0 C0.66 0 1.32 0 2 0 C1.67 1.32 1.34 2.64 1 4 C0.67 2.68 0.34 1.36 0 0 Z " fill="#FAE373" transform="translate(10,0)"/>
</svg>
