<?xml version="1.0" encoding="UTF-8"?>
<svg version="1.1" xmlns="http://www.w3.org/2000/svg" width="32" height="32">
<path d="M0 0 C0.886875 -0.00257812 1.77375 -0.00515625 2.6875 -0.0078125 C5 0.125 5 0.125 7 1.125 C7 2.775 7 4.425 7 6.125 C8.670625 6.0940625 8.670625 6.0940625 10.375 6.0625 C14 6.125 14 6.125 16 7.125 C16.22834646 21.8914042 16.22834646 21.8914042 15 29.125 C13.16965945 30.95534055 10.26788008 30.25542797 7.8125 30.2578125 C6.55695312 30.25910156 5.30140625 30.26039062 4.0078125 30.26171875 C3.35071289 30.25962402 2.69361328 30.2575293 2.01660156 30.25537109 C0.00838665 30.25002234 -1.99960459 30.25531691 -4.0078125 30.26171875 C-5.26335938 30.26042969 -6.51890625 30.25914063 -7.8125 30.2578125 C-8.97394531 30.25668457 -10.13539062 30.25555664 -11.33203125 30.25439453 C-14 30.125 -14 30.125 -15 29.125 C-16.23412453 21.85737779 -16.11358339 14.47005909 -16 7.125 C-13.04335481 5.6466774 -10.25770263 6.06467217 -7 6.125 C-7 4.475 -7 2.825 -7 1.125 C-4.51245214 -0.11877393 -2.77344699 -0.00806235 0 0 Z M-4 3.125 C-4.33 4.115 -4.66 5.105 -5 6.125 C-1.7 6.125 1.6 6.125 5 6.125 C4.67 5.135 4.34 4.145 4 3.125 C1.36 3.125 -1.28 3.125 -4 3.125 Z " fill="#E1A976" transform="translate(16,0.875)"/>
<path d="M0 0 C0.66 0 1.32 0 2 0 C2 3.3 2 6.6 2 10 C2.99 10.33 3.98 10.66 5 11 C5 12.32 5 13.64 5 15 C5.66 14.67 6.32 14.34 7 14 C8.35157981 13.90534655 9.70761148 13.86927838 11.0625 13.8671875 C11.85914063 13.86589844 12.65578125 13.86460938 13.4765625 13.86328125 C14.30929687 13.86714844 15.14203125 13.87101562 16 13.875 C16.83273438 13.87113281 17.66546875 13.86726563 18.5234375 13.86328125 C19.71839844 13.86521484 19.71839844 13.86521484 20.9375 13.8671875 C21.66839844 13.86831543 22.39929688 13.86944336 23.15234375 13.87060547 C25 14 25 14 27 15 C27.33 13.35 27.66 11.7 28 10 C28.66 10 29.32 10 30 10 C30 6.7 30 3.4 30 0 C30.66 0 31.32 0 32 0 C32.22834646 14.7664042 32.22834646 14.7664042 31 22 C29.16965945 23.83034055 26.26788008 23.13042797 23.8125 23.1328125 C22.55695312 23.13410156 21.30140625 23.13539062 20.0078125 23.13671875 C19.35071289 23.13462402 18.69361328 23.1325293 18.01660156 23.13037109 C16.00838665 23.12502234 14.00039541 23.13031691 11.9921875 23.13671875 C10.73664062 23.13542969 9.48109375 23.13414063 8.1875 23.1328125 C7.02605469 23.13168457 5.86460937 23.13055664 4.66796875 23.12939453 C2 23 2 23 1 22 C-0.23412453 14.73237779 -0.11358339 7.34505909 0 0 Z " fill="#C18A65" transform="translate(0,8)"/>
<path d="M0 0 C0.886875 -0.00257812 1.77375 -0.00515625 2.6875 -0.0078125 C5 0.125 5 0.125 7 1.125 C7 3.105 7 5.085 7 7.125 C6.34 7.125 5.68 7.125 5 7.125 C4.67 6.135 4.34 5.145 4 4.125 C1.36 4.125 -1.28 4.125 -4 4.125 C-4.33 5.115 -4.66 6.105 -5 7.125 C-5.66 7.125 -6.32 7.125 -7 7.125 C-7 5.145 -7 3.165 -7 1.125 C-4.51245214 -0.11877393 -2.77344699 -0.00806235 0 0 Z " fill="#C9946A" transform="translate(16,0.875)"/>
<path d="M0 0 C0.66 0 1.32 0 2 0 C2 3.96 2 7.92 2 12 C0.35 12.33 -1.3 12.66 -3 13 C-2.67 12.01 -2.34 11.02 -2 10 C-1.34 10 -0.68 10 0 10 C0 6.7 0 3.4 0 0 Z " fill="#D0996D" transform="translate(30,8)"/>
<path d="M0 0 C0.66 0 1.32 0 2 0 C2 3.3 2 6.6 2 10 C2.99 10.33 3.98 10.66 5 11 C5 11.66 5 12.32 5 13 C3.35 12.67 1.7 12.34 0 12 C0 8.04 0 4.08 0 0 Z " fill="#D0996D" transform="translate(0,8)"/>
</svg>
